<svg viewBox="0 0 77 88" fill="none" xmlns="http://www.w3.org/2000/svg">
    <path d="m66.239 15.949-9.215 5.317-9.215 5.322-9.214 5.321-9.189-5.304.004-.004-9.215-5.318 9.215-5.317 9.215-5.322.002-.005 9.207 5.318 9.218-5.318-9.218-5.321L38.625 0 29.41 5.322l-9.215 5.322-9.216 5.322-9.215 5.317 9.215 5.322h.003l9.186 5.304h-.005l9.215 5.323 9.217 5.317 9.214-5.317 9.215-5.323 9.215-5.321 9.214-5.322-9.214-5.317ZM28.106 39.351l-9.188-5.307v-.005l-9.212-5.316-9.215-5.318v10.639l9.215 5.322v-.004l9.189 5.307v.004l9.211 5.317v21.289l-9.188-5.304v-.004l-9.212-5.323V50.014L.491 44.692v21.279l9.215 5.317 9.189 5.305v.004l9.211 5.321 9.216 5.323V44.673l-9.216-5.322Zm11.763 5.322v42.568l9.213-5.322V49.99l9.215-5.317 9.215-5.321v21.283l-9.215 5.323v10.64l18.427-10.64V23.39L39.869 44.673Z" fill="currentColor"/>
</svg>
