<svg xmlns="http://www.w3.org/2000/svg" xmlns:xlink="http://www.w3.org/1999/xlink" xml:space="preserve" viewBox="0 0 38 38" height="100px" width="100px" transform="rotate(0) scale(1, 1)">
<style type="text/css">.st1 { }.st2 { }</style>

<g>
	
		<linearGradient id="SVGID_1_" gradientUnits="userSpaceOnUse" x1="6.4811" y1="8.4972" x2="32.3879" y2="33.5151" gradientTransform="matrix(1 0 0 -1 0 40)" fill="#ffffff">
		<stop offset="0" style="stop-color:#853C72" fill="#ffffff"/>
		<stop offset="1" style="stop-color:#DC238C" fill="#ffffff"/>
	</linearGradient>
	<path class="st1" d="M31,5.2C27.9,2.6,23.8,1,19.4,1c-9.9,0-18,8.1-18,18s8.1,18,18,18c4.4,0,8.5-1.6,11.6-4.2l1.6-1.5l-3.8-1.5    c-2.5,2.1-5.7,3.3-9.1,3.3c-7.8,0-14.2-6.3-14.2-14.2c0-7.8,6.3-14.2,14.2-14.2c3.5,0,6.7,1.3,9.1,3.3l3.8-1.5l0,0L31,5.2z" shape-rendering="geometricPrecision" fill="#ffffff"/>
	
		<linearGradient id="SVGID_2_" gradientUnits="userSpaceOnUse" x1="10.7624" y1="12.5169" x2="28.59" y2="29.7327" gradientTransform="matrix(1 0 0 -1 0 40)" fill="#ffffff">
		<stop offset="0" style="stop-color:#853C72" fill="#ffffff"/>
		<stop offset="1" style="stop-color:#DC238C" fill="#ffffff"/>
	</linearGradient>
	<path class="st2" d="M19.7,31.3c6.8,0,12.4-5.6,12.4-12.4S26.5,6.5,19.7,6.5c-3.4,0-6.5,1.4-8.8,3.6l2.4,2.4    c1.6-1.6,3.9-2.7,6.4-2.7c5,0,9.1,4.1,9.1,9.1S24.7,28,19.7,28c-2.5,0-4.8-1-6.4-2.7l-2.4,2.4C13.2,29.9,16.3,31.3,19.7,31.3z" shape-rendering="geometricPrecision" fill="#ffffff"/>
</g>

</svg>