<svg xmlns="http://www.w3.org/2000/svg" viewBox="0 0 640 640"><!--!Font Awesome Pro 7.1.0 by @fontawesome - https://fontawesome.com License - https://fontawesome.com/license (Commercial License) Copyright 2025 Fonticons, Inc.--><path opacity="1" fill="#dee8fa" d="M34.5 307.7C31.2 315.6 31.2 324.4 34.5 332.3C49.4 368 80.7 420 127.5 463.4C174.6 507.1 239.3 544 320.1 544C400.9 544 465.6 507.2 512.7 463.4C559.5 419.9 590.8 368 605.7 332.3C609 324.4 609 315.6 605.7 307.7C590.8 272 559.5 220 512.7 176.6C465.6 132.9 400.9 96 320.1 96C239.3 96 174.5 132.8 127.4 176.6C80.6 220 49.3 272 34.5 307.7zM464 320C464 399.5 399.5 464 320 464C240.5 464 176 399.5 176 320C176 240.5 240.5 176 320 176C399.5 176 464 240.5 464 320z"/><path fill="#1f67db" d="M320 256C320 291.3 291.3 320 256 320C244.5 320 233.7 317 224.3 311.6C223.3 322.5 224.2 333.7 227.2 344.8C240.9 396 293.6 426.4 344.8 412.7C396 399 426.4 346.3 412.7 295.1C400.5 249.4 357.2 220.3 311.6 224.3C316.9 233.6 320 244.4 320 256z"/></svg>