<svg width="166" height="166" viewBox="0 0 166 166" fill="none" xmlns="http://www.w3.org/2000/svg">
<path fill-rule="evenodd" clip-rule="evenodd" d="M145.06 28.8172C158.705 44.1816 165.583 62.186 165.695 82.8303C165.604 105.361 157.395 124.789 141.069 141.116C124.743 157.442 105.368 165.597 82.9443 165.582C62.2023 165.568 44.1451 158.742 28.7726 145.105L50.288 123.59C59.5935 131.288 70.2584 135.141 82.2827 135.149C96.1641 135.159 108.44 129.828 119.111 119.157C129.781 108.486 135.112 96.2103 135.103 82.3288C135.002 70.3968 131.096 59.7842 123.386 50.491L145.06 28.8172Z" fill="black"/>
<path fill-rule="evenodd" clip-rule="evenodd" d="M115.154 42.2894L136.833 20.61C121.506 7.0648 103.559 0.236684 82.9908 0.125066C60.3534 0.109505 40.8716 8.26485 24.5455 24.5911C8.21939 40.9173 0.117458 60.3459 0.23972 82.8768C0.253921 103.542 7.02902 121.543 20.5656 136.878L42.0867 115.357C34.4853 106.093 30.6807 95.4871 30.6725 83.5384C30.6629 69.6568 35.9935 57.3807 46.6642 46.7099C57.3348 36.0392 69.6109 30.7086 83.4923 30.7181C95.3491 30.8182 105.903 34.6751 115.154 42.2894Z" fill="black"/>
</svg>
